<!DOCTYPE svg PUBLIC "-//W3C//DTD SVG 1.1//EN" "http://www.w3.org/Graphics/SVG/1.1/DTD/svg11.dtd">
<!-- Uploaded to: SVG Repo, www.svgrepo.com, Transformed by: SVG Repo Mixer Tools -->
<svg height="79px" width="79px" version="1.1" id="Layer_1" xmlns="http://www.w3.org/2000/svg" xmlns:xlink="http://www.w3.org/1999/xlink" viewBox="0 0 512.001 512.001" xml:space="preserve" fill="#000000">
<g id="SVGRepo_bgCarrier" stroke-width="0"/>
<g id="SVGRepo_tracerCarrier" stroke-linecap="round" stroke-linejoin="round"/>
<g id="SVGRepo_iconCarrier"> <g> <path style="fill:#fbab01;" d="M390.591,13.429l-134.59,50.578l79.354,104.422L429.49,62.242L390.591,13.429z"/> <path style="fill:#fbab01;" d="M82.512,62.24l94.135,106.188l79.354-104.422l-134.59-50.577L82.512,62.24z"/> </g> <path style="fill:#22554d;" d="M439.991,53.874L401.093,5.061c-3.628-4.552-9.774-6.251-15.224-4.202L256.001,49.663L126.133,0.859 c-5.448-2.048-11.598-0.352-15.224,4.202L72.011,53.874c-4.067,5.104-3.877,12.392,0.453,17.276l94.135,106.188 c2.553,2.88,6.214,4.52,10.047,4.52c0.168,0,0.337-0.003,0.508-0.009c4.016-0.152,7.752-2.093,10.184-5.293l4.881-6.422 l22.755,26.144l-40.302,244.799c-0.783,4.755,1.042,9.565,4.782,12.602l68.08,55.318c2.467,2.005,5.468,3.007,8.468,3.007 s6.001-1.002,8.468-3.007l68.08-55.318c3.74-3.039,5.564-7.847,4.782-12.602l-26.886-163.312c-0.012-0.077-0.035-0.148-0.048-0.224 c-0.048-0.265-0.106-0.524-0.169-0.781c-0.044-0.18-0.087-0.36-0.138-0.536c-0.071-0.246-0.152-0.485-0.236-0.725 c-0.066-0.187-0.13-0.372-0.203-0.555c-0.086-0.214-0.181-0.422-0.277-0.63c-0.091-0.197-0.181-0.393-0.282-0.585 c-0.097-0.184-0.2-0.361-0.305-0.54c-0.117-0.201-0.235-0.401-0.363-0.596c-0.107-0.162-0.222-0.32-0.336-0.478 c-0.138-0.192-0.277-0.384-0.426-0.569c-0.125-0.154-0.256-0.302-0.388-0.451c-0.15-0.171-0.301-0.342-0.459-0.505 c-0.15-0.154-0.307-0.301-0.466-0.447c-0.152-0.142-0.303-0.285-0.462-0.419c-0.181-0.154-0.369-0.298-0.559-0.442 c-0.148-0.113-0.293-0.227-0.446-0.333c-0.211-0.148-0.428-0.283-0.647-0.419c-0.144-0.089-0.285-0.18-0.432-0.263 c-0.231-0.13-0.469-0.25-0.706-0.367c-0.149-0.074-0.297-0.149-0.45-0.216c-0.236-0.105-0.477-0.199-0.72-0.29 c-0.169-0.064-0.337-0.129-0.509-0.187c-0.227-0.075-0.458-0.14-0.689-0.203c-0.2-0.055-0.399-0.109-0.602-0.154 c-0.209-0.047-0.423-0.085-0.636-0.121c-0.232-0.04-0.465-0.079-0.7-0.107c-0.197-0.023-0.397-0.039-0.596-0.054 c-0.252-0.019-0.504-0.034-0.759-0.039c-0.082-0.001-0.161-0.012-0.243-0.012h-34.207c-7.416,0-13.428,6.012-13.428,13.428 s6.012,13.428,13.428,13.428h22.81l23.768,144.376l-53.565,43.523l-53.565-43.523l38.37-233.068h42.792 c3.885,0,7.579-1.683,10.129-4.612l26.055-29.937l4.881,6.423c2.432,3.2,6.169,5.143,10.184,5.293 c0.169,0.007,0.338,0.009,0.508,0.009c3.832,0,7.494-1.64,10.047-4.52l94.135-106.188C443.867,66.266,444.058,58.976,439.991,53.874 z M175.849,147.288l-75.801-85.507l25.777-32.347l108.577,40.802L175.849,147.288z M277.484,177.824h-42.966l-25.703-29.532 L256.001,86.2l47.186,62.093L277.484,177.824z M336.153,147.288l-58.554-77.052l108.577-40.802l25.777,32.347L336.153,147.288z"/> </g>
</svg>