<!DOCTYPE svg PUBLIC "-//W3C//DTD SVG 1.1//EN" "http://www.w3.org/Graphics/SVG/1.1/DTD/svg11.dtd">
<!-- Uploaded to: SVG Repo, www.svgrepo.com, Transformed by: SVG Repo Mixer Tools -->
<svg height="80px" width="80px" version="1.1" id="Layer_1" xmlns="http://www.w3.org/2000/svg" xmlns:xlink="http://www.w3.org/1999/xlink" viewBox="0 0 512 512" xml:space="preserve" fill="#000000">
<g id="SVGRepo_bgCarrier" stroke-width="0"/>
<g id="SVGRepo_tracerCarrier" stroke-linecap="round" stroke-linejoin="round"/>
<g id="SVGRepo_iconCarrier"> <circle style="fill:#fbab01;" cx="283.823" cy="283.824" r="143.032"/> <path style="fill:#22554d;" d="M283.823,441.791c-87.104,0-157.967-70.863-157.967-157.967s70.863-157.967,157.967-157.967 s157.967,70.863,157.967,157.967S370.926,441.791,283.823,441.791z M283.823,155.733c-70.629,0-128.091,57.461-128.091,128.091 s57.461,128.091,128.091,128.091s128.091-57.461,128.091-128.091S354.454,155.733,283.823,155.733z"/> <path style="fill:#fbab01;" d="M283.823,210.506c40.493,0,73.318,32.825,73.318,73.318s-32.825,73.318-73.318,73.318 s-73.318-32.825-73.318-73.318"/> <path style="fill:#22554d;" d="M283.823,372.079c-48.665,0-88.256-39.59-88.256-88.256c0-8.25,6.688-14.938,14.938-14.938 s14.938,6.688,14.938,14.938c0,32.19,26.189,58.38,58.38,58.38s58.38-26.189,58.38-58.38s-26.189-58.38-58.38-58.38 c-8.25,0-14.938-6.688-14.938-14.938c0-8.25,6.688-14.938,14.938-14.938c48.665,0,88.256,39.59,88.256,88.256 S332.489,372.079,283.823,372.079z"/> <polygon style="fill:#fbab01;" points="107.881,55.068 102.614,102.613 55.068,107.881 14.938,67.752 67.752,14.938 "/> <path style="fill:#22554d;" d="M283.823,55.647c-57.543,0-110.171,21.421-150.353,56.696l-15.219-15.219l4.477-40.412 c0.499-4.508-1.077-9-4.284-12.207L78.316,4.374c-5.833-5.832-15.292-5.832-21.127,0L4.375,57.189 c-5.833,5.833-5.833,15.292,0,21.127l40.128,40.128c2.817,2.816,6.624,4.375,10.563,4.375c0.547,0,1.096-0.03,1.646-0.091 l40.414-4.477l15.219,15.219c-35.276,40.18-56.698,92.809-56.698,150.353C55.647,409.641,158.006,512,283.823,512 c66.164,0,129.001-28.684,172.401-78.697c5.408-6.231,4.738-15.666-1.492-21.073c-6.234-5.409-15.667-4.738-21.073,1.492 c-37.722,43.47-92.334,68.402-149.835,68.402c-109.342,0-198.3-88.956-198.3-198.3c0-49.306,18.093-94.463,47.983-129.191 L273.73,294.857c2.917,2.916,6.74,4.375,10.563,4.375s7.647-1.459,10.563-4.375c5.833-5.833,5.833-15.292,0-21.127L154.631,133.506 c34.73-29.89,79.886-47.983,129.192-47.983c109.344,0,198.3,88.956,198.3,198.3c0,8.25,6.688,14.938,14.938,14.938 c8.25,0,14.938-6.688,14.938-14.938C512,158.008,409.64,55.647,283.823,55.647z M36.063,67.752l31.688-31.688l24.492,24.492 l-3.161,28.529l-28.529,3.161L36.063,67.752z"/> </g>
</svg>